<svg xmlns="http://www.w3.org/2000/svg" viewBox="0 0 800 450" role="img" aria-labelledby="title desc">
  <title id="title">Project placeholder</title>
  <desc id="desc">A simple placeholder image for project cards.</desc>
  <defs>
    <linearGradient id="bg" x1="0%" y1="0%" x2="100%" y2="100%">
      <stop offset="0%" stop-color="#4f46e5" />
      <stop offset="100%" stop-color="#0ea5e9" />
    </linearGradient>
  </defs>
  <rect width="800" height="450" fill="url(#bg)" rx="24" />
  <g fill="#ffffff" opacity="0.16">
    <circle cx="120" cy="90" r="64" />
    <circle cx="700" cy="350" r="110" />
    <rect x="180" y="280" width="340" height="40" rx="20" />
  </g>
  <g fill="#ffffff">
    <path d="M307 155h186c17.7 0 32 14.3 32 32v76c0 17.7-14.3 32-32 32H307c-17.7 0-32-14.3-32-32v-76c0-17.7 14.3-32 32-32zm0 24c-4.4 0-8 3.6-8 8v76c0 4.4 3.6 8 8 8h186c4.4 0 8-3.6 8-8v-76c0-4.4-3.6-8-8-8H307z"/>
    <path d="M356 245l33-22-33-22v44zm80-44h46v24h-46zm0 44h46v24h-46z"/>
    <text x="400" y="355" font-family="Arial, Helvetica, sans-serif" font-size="38" text-anchor="middle" font-weight="700">Project</text>
  </g>
</svg>
